{"title":"Horrid Henry The Movie 2011 Rip XviD - FYA","uid":6841836,"size":1147302927,"categoryP":"video","categoryS":"movies","magnet":"?xt=urn:btih:4557cc8c41d8b77056ecd31a28f3e8db9961a233&amp;dn=Horrid+Henry+The+Movie+2011+Rip+XviD+-+FYA&amp;tr=udp%3A%2F%2Ftracker.openbittorrent.com%3A80&amp;tr=udp%3A%2F%2Fopen.demonii.com%3A1337&amp;tr=udp%3A%2F%2Ftracker.coppersurfer.tk%3A6969&amp;tr=udp%3A%2F%2Fexodus.desync.com%3A6969","seeders":0,"leechers":1,"uploader":"LegendET","files":3,"time":1322196215,"description":"[center]Horrid Henry The Movie 2011 Rip XviD - FYA\n[img]http://img535.imageshack.us/img535/6152/mv5bmtm3oty0mjg4nf5bml5.jpg[/img]\nimdb: &lt;a href=&quot;\nhttp://www.imdb.com/title/tt1684555/&quot; rel=&quot;nofollow&quot; target=&quot;_NEW&quot;&gt;\nhttp://www.imdb.com/title/tt1684555/&lt;/a&gt;\n\nplot:\nHorrid Henry finds himself doing things \nhe never ever thought he'd do, and then \nsome. \n\nNotes:\nOk here goes source was terrible and i mean \nterrible  \n\n\nTAKE IT OR LEAVE IT JUS DONT BITCH \nLIKE A \nBIATCH \n\ninfo:\nVideo:\nID                               : 0\nFormat                           : MPEG-4 Visual\nFormat profile                   : Advanced Simple@L5\nFormat settings, BVOP            : 2\nFormat settings, QPel            : No\nFormat settings, GMC             : No warppoints\nFormat settings, Matrix          : Default (H.263)\nCodec ID                         : XVID\nCodec ID/Hint                    : XviD\nDuration                         : 1h 34mn\nBit rate                         : 1 486 Kbps\nWidth                            : 720 pixels\nHeight                           : 304 pixels\nDisplay aspect ratio             : 2.35:1\nFrame rate                       : 25.000 fps\nColor space                      : YUV\nChroma subsampling               : 4:2:0\nBit depth                        : 8 bits\nScan type                        : Progressive\nCompression mode                 : Lossy\nBits/(Pixel*Frame)               : 0.272\nStream size                      : 999 MiB (91%)\n\nAudio:\nID                               : 1\nFormat                           : MPEG Audio\nFormat version                   : Version 1\nFormat profile                   : Layer 3\nCodec ID                         : 55\nCodec ID/Hint                    : MP3\nDuration                         : 1h 34mn\nBit rate mode                    : Constant\nBit rate                         : 128 Kbps\nChannel(s)                       : 2 channels\nSampling rate                    : 48.0 KHz\nCompression mode                 : Lossy\nStream size                      : 86.1 MiB (8%)\nAlignment                        : Split accross interleaves\nInterleave, duration             : 24 ms (0.60 video frame)\n\nScreens:\n[img]http://img707.imageshack.us/img707/2306/ygyuq.png[/img]\n[img]http://img638.imageshack.us/img638/9006/wcwpm.png[/img]\n[img]http://img21.imageshack.us/img21/8928/kkx6t.png[/img]\n[img]http://img402.imageshack.us/img402/7595/hybue.png[/img]\n[img]http://img62.imageshack.us/img62/2677/be7o7.png[/img][/center]","torrent":{"xt":"urn:btih:4557cc8c41d8b77056ecd31a28f3e8db9961a233","amp;dn":"Horrid+Henry+The+Movie+2011+Rip+XviD+-+FYA","amp;tr":["udp%3A%2F%2Ftracker.openbittorrent.com%3A80","udp%3A%2F%2Fopen.demonii.com%3A1337","udp%3A%2F%2Ftracker.coppersurfer.tk%3A6969","udp%3A%2F%2Fexodus.desync.com%3A6969"],"infoHash":"4557cc8c41d8b77056ecd31a28f3e8db9961a233","infoHashBuffer":{"type":"Buffer","data":[69,87,204,140,65,216,183,112,86,236,211,26,40,243,232,219,153,97,162,51]},"announce":[],"urlList":[]}}